:SAMPLES-PER-SECOND 30
:FULLY-SPECIFIED
:DEGREES
44
root  -7.86669 38.0381 10.0078 -179.535 -73.3575 -174.818
RightUpLeg  -29.9657 1.55339 -0.206394
RightLeg  2.37902 1.56819 -1.0557
RightFoot  -0.769669 -0.969399 10.4014
RightToes  5.82063e-011 0 -3.6325e-017
Spine  -6.11714 0.474079 -1.49115
Spine1  15.1362 0.0585228 2.39672
HEad  -4.2957 8.18742 -5.86583
LeftShoulder1  -0.222506 4.09712 -31.3694
LeftArm  7.05595 -14.4484 -55.0591
LeftForeArm  21.512 -33.42 -6.17444
LeftHand  -0.0706525 1.87987 1.9949
RightShoulder  -0.552526 -5.09282 27.9813
RightArm  12.2012 -0.186643 46.8784
RightForeArm  14.4506 9.32152 6.48491
RightHand  -0.251448 1.23408 -4.54356
LeftUpLeg  1.04088 10.9771 -0.743119
LeftLeg  21.15 -6.48511 -3.66314
LeftFoot  -23.7055 1.26909 10.3712
LeftToes  1.81573e-012 2.54609e-010 -3.45981e-011
45
root  -9.3562 37.7805 9.30698 -179.809 -73.6005 -173.86
RightUpLeg  -31.5061 3.80996 0.842369
RightLeg  4.67029 0.189923 -1.09009
RightFoot  3.84719 -0.763383 6.24797
RightToes  5.82063e-011 0 -3.6325e-017
Spine  -7.2879 0.867196 -1.36864
Spine1  15.5223 -0.00326055 3.62261
HEad  -3.88996 7.95018 -6.1846
LeftShoulder1  -0.21716 4.08609 -31.1544
LeftArm  6.72502 -13.8524 -54.8634
LeftForeArm  20.713 -34.5257 -6.5112
LeftHand  -0.107965 1.10744 2.82732
RightShoulder  -0.601543 -5.20838 28.5362
RightArm  12.1702 -0.788164 46.2876
RightForeArm  14.2272 9.16005 6.47654
RightHand  -0.244303 0.770934 -4.69269
LeftUpLeg  2.71105 11.9771 0.546359
LeftLeg  22.2806 -8.49562 -3.95328
LeftFoot  -24.8289 1.09693 8.00519
LeftToes  1.81573e-012 2.54609e-010 -3.45981e-011
46
root  -10.8848 37.5053 8.71733 176.866 -73.3852 -170.456
RightUpLeg  -33.8561 6.37436 1.45713
RightLeg  12.6842 1.3172 -0.25154
RightFoot  10.1041 -0.328187 1.9287
RightToes  5.82063e-011 0 -3.6325e-017
Spine  -7.00717 1.22111 1.04823
Spine1  15.2678 0.156246 3.33202
HEad  -3.64493 8.14476 -6.63679
LeftShoulder1  -0.325078 4.35767 -31.91
LeftArm  6.4723 -12.9732 -53.7023
LeftForeArm  19.4955 -34.4165 -6.55598
LeftHand  -0.110817 1.44295 3.07711
RightShoulder  -0.649945 -5.32962 28.8852
RightArm  11.9695 -0.957728 46.0495
RightForeArm  13.7499 8.44935 6.53486
RightHand  -0.29134 1.95636 -4.77941
LeftUpLeg  4.24645 11.4936 2.21405
LeftLeg  25.0882 -8.94739 -4.13436
LeftFoot  -25.4585 0.736881 4.75223
LeftToes  1.81573e-012 2.54609e-010 -3.45981e-011
47
root  -12.5123 37.2642 8.32538 169.078 -72.9789 -164.016
RightUpLeg  -34.0828 5.25193 4.02157
RightLeg  21.8103 2.28901 0.830351
RightFoot  5.94607 -0.00828446 0.33434
RightToes  5.82063e-011 0 -3.6325e-017
Spine  -4.79104 1.38551 6.81272
Spine1  14.7067 0.824617 0.445424
HEad  -3.2713 8.40925 -7.73765
LeftShoulder1  -0.370891 4.45429 -32.8881
LeftArm  6.64539 -11.7575 -52.6427
LeftForeArm  17.9117 -32.371 -6.12382
LeftHand  -0.128455 1.20169 3.47215
RightShoulder  -0.653805 -5.33238 29.0373
RightArm  11.3326 -0.591043 46.0331
RightForeArm  14.33 7.46928 6.39711
RightHand  -0.229903 1.64868 -3.95764
LeftUpLeg  5.98411 9.73728 4.70367
LeftLeg  30.6861 -8.42515 -5.04409
LeftFoot  -24.2718 0.209394 0.452467
LeftToes  1.81573e-012 2.54609e-010 -3.45981e-011
48
root  -13.996 37.2287 7.83546 165.361 -73.36 -160.581
RightUpLeg  -33.4991 4.77706 5.37695
RightLeg  26.853 1.97836 0.84691
RightFoot  1.77117 0.0993856 -0.780642
RightToes  5.82063e-011 0 -3.6325e-017
Spine  -5.08085 1.46691 8.89917
Spine1  15.9081 0.696436 0.710749
HEad  -2.65186 8.79342 -7.9885
LeftShoulder1  -0.335559 4.36873 -32.6373
LeftArm  8.22226 -9.89229 -52.5137
LeftForeArm  15.3574 -28.9063 -5.41659
LeftHand  -0.156883 2.02163 5.13606
RightShoulder  -0.663868 -5.35639 29.1012
RightArm  11.5949 0.420786 46.0816
RightForeArm  14.2351 6.37172 6.5415
RightHand  -0.218411 0.84282 -4.15769
LeftUpLeg  4.32681 9.08129 6.7271
LeftLeg  38.5552 -9.20934 -7.43639
LeftFoot  -18.0559 -0.158591 -5.10921
LeftToes  1.81573e-012 2.54609e-010 -3.45981e-011
49
root  -15.2615 37.3056 7.22258 165.46 -75.1217 -160.273
RightUpLeg  -33.2204 5.00846 5.05434
RightLeg  30.1508 0.291175 -0.0483696
RightFoot  -1.70119 0.157533 -1.95605
RightToes  5.82063e-011 0 -3.6325e-017
Spine  -5.29115 1.61663 7.16901
Spine1  15.6826 0.119793 3.97009
HEad  -1.58264 7.95746 -7.53271
LeftShoulder1  -0.401517 4.52844 -33.0382
LeftArm  12.7413 -8.14196 -51.9242
LeftForeArm  13.3017 -24.837 -4.64888
LeftHand  -0.132349 2.29835 4.54172
RightShoulder  -0.605455 -5.22002 28.4928
RightArm  11.3338 -0.157235 46.3226
RightForeArm  13.9601 6.80548 6.44471
RightHand  -0.267684 1.48036 -4.67539
LeftUpLeg  -1.29269 7.60311 7.09127
LeftLeg  48.3548 -7.67212 -8.62886
LeftFoot  -5.76386 0.391587 -8.36197
LeftToes  1.81573e-012 2.54609e-010 -3.45981e-011
50
root  -16.4873 37.449 6.93443 162.522 -77.8241 -158.345
RightUpLeg  -30.8329 2.86565 4.60098
RightLeg  32.3145 -0.0999868 -0.315301
RightFoot  -5.08978 0.0580079 -1.67439
RightToes  5.82063e-011 0 -3.6325e-017
Spine  -3.62107 1.28938 9.27233
Spine1  15.4487 0.468666 2.84089
HEad  -1.36878 5.99728 -6.98375
LeftShoulder1  -0.329794 4.35062 -32.8075
LeftArm  16.3066 -7.025 -51.3069
LeftForeArm  14.3573 -21.2628 -4.76067
LeftHand  -0.0510198 3.08944 1.67278
RightShoulder  -0.770086 -5.64741 29.2949
RightArm  11.5325 -0.256694 45.6585
RightForeArm  13.4565 8.43127 6.39234
RightHand  -0.261536 1.36178 -4.63777
LeftUpLeg  -6.74774 4.60843 6.32978
LeftLeg  57.3329 -4.09292 -6.30162
LeftFoot  6.71768 1.07348 -6.96226
LeftToes  1.81573e-012 2.54609e-010 -3.45981e-011
51
root  -17.7781 37.7536 6.67525 163.802 -80.3761 -160.429
RightUpLeg  -27.646 0.0240909 3.45457
RightLeg  32.6704 0.303517 -0.0480531
RightFoot  -8.00106 -0.0140726 -1.41202
RightToes  5.82063e-011 0 -3.6325e-017
Spine  -2.9789 1.00104 10.1486
Spine1  15.6923 0.722706 1.85741
HEad  -1.41152 4.47259 -7.1493
LeftShoulder1  -0.378413 4.46235 -33.3366
LeftArm  14.2564 -5.67716 -49.6617
LeftForeArm  20.0315 -17.7283 -6.65842
LeftHand  -0.0147301 4.23771 -0.648832
RightShoulder  -0.722281 -5.53134 28.9573
RightArm  12.7253 0.151727 45.8409
RightForeArm  11.6736 9.57975 6.6212
RightHand  -0.24956 1.12539 -4.57048
LeftUpLeg  -11.4935 2.71693 4.65426
LeftLeg  63.3084 -1.54666 -2.7876
LeftFoot  6.20672 0.742245 -5.01321
LeftToes  1.81573e-012 2.54609e-010 -3.45981e-011
52
root  -19.0924 38.1404 6.33476 175.469 -81.8837 -172.547
RightUpLeg  -24.5778 -1.87991 1.3449
RightLeg  32.2491 0.985419 0.409984
RightFoot  -10.1347 -0.0521175 -1.54504
RightToes  5.82063e-011 0 -3.6325e-017
Spine  -2.71838 1.18344 8.77139
Spine1  15.4871 1.17463 1.77498
HEad  -1.15663 3.50738 -7.0151
LeftShoulder1  -0.412746 4.54252 -33.593
LeftArm  9.11294 -3.23873 -47.8458
LeftForeArm  25.5909 -13.8013 -8.75491
LeftHand  -0.0285049 5.22768 -1.29083
RightShoulder  -0.71213 -5.52178 28.6203
RightArm  15.4138 1.41733 45.9998
RightForeArm  10.5779 10.6688 7.141
RightHand  -0.236146 0.983212 -4.41556
LeftUpLeg  -16.0928 2.47751 2.04933
LeftLeg  66.0081 -0.669134 -0.985516
LeftFoot  4.48113 0.389766 -3.02137
LeftToes  1.81573e-012 2.54609e-010 -3.45981e-011
53
root  -20.4235 38.51 6.07027 -170.451 -83.0318 173.19
RightUpLeg  -21.4005 -4.36785 -0.673361
RightLeg  31.1468 2.18536 1.16442
RightFoot  -11.885 -0.0879794 -1.58122
RightToes  5.82063e-011 0 -3.6325e-017
Spine  -2.55368 1.18873 8.20449
Spine1  14.8116 1.578 0.889002
HEad  -0.399452 3.41663 -7.60856
LeftShoulder1  -0.417911 4.55881 -33.4525
LeftArm  3.96056 -0.405196 -45.9121
LeftForeArm  29.7492 -9.83926 -10.1003
LeftHand  -0.0399866 5.84265 -1.68842
RightShoulder  -0.717622 -5.54897 28.4258
RightArm  17.3967 2.55318 46.3855
RightForeArm  11.035 11.9396 7.13482
RightHand  -0.233084 0.926324 -4.39561
LeftUpLeg  -20.2487 1.88361 -0.534964
LeftLeg  65.3989 -0.509178 -0.535857
LeftFoot  3.2495 0.312995 -2.58773
LeftToes  1.81573e-012 2.54609e-010 -3.45981e-011
54
root  -21.7881 38.8477 5.81592 -156.368 -83.8151 158.877
RightUpLeg  -17.7097 -7.28557 -2.29737
RightLeg  29.381 3.75585 2.02725
RightFoot  -13.3677 -0.119253 -1.64782
RightToes  5.82063e-011 0 -3.6325e-017
Spine  -2.33415 1.19447 7.9871
Spine1  13.9114 1.88395 -0.115201
HEad  0.282123 3.11035 -7.68934
LeftShoulder1  -0.351827 4.39636 -33.2675
LeftArm  -0.13535 2.70914 -44.1096
LeftForeArm  33.0154 -6.74461 -10.246
LeftHand  -0.0488867 5.98237 -1.46071
RightShoulder  -0.734577 -5.60645 28.2763
RightArm  19.7931 3.25132 46.3885
RightForeArm  9.50706 13.9729 6.78306
RightHand  -0.223987 0.982372 -4.18837
LeftUpLeg  -23.5478 0.844666 -2.71991
LeftLeg  61.9815 -1.1698 -1.7802
LeftFoot  1.59679 0.202196 -1.87988
LeftToes  1.81573e-012 2.54609e-010 -3.45981e-011
55
root  -23.1514 39.0606 5.58521 -139.005 -84.3361 141.657
RightUpLeg  -14.6127 -11.3111 -4.09625
RightLeg  28.1364 6.20541 3.34942
RightFoot  -14.9811 -0.157578 -1.75254
RightToes  5.82063e-011 0 -3.6325e-017
Spine  -2.5804 1.09782 7.22267
Spine1  13.2634 1.80145 -0.504585
HEad  0.65086 2.95777 -7.65856
LeftShoulder1  -0.411409 4.53703 -33.6822
LeftArm  -2.29777 5.26677 -42.0392
LeftForeArm  35.9607 -4.71569 -9.79714
LeftHand  -0.11565 7.60818 -3.80815
RightShoulder  -0.681395 -5.48248 27.7607
RightArm  21.6274 3.91924 46.6151
RightForeArm  7.28896 16.0722 6.16863
RightHand  -0.197762 0.611029 -3.91875
LeftUpLeg  -26.3439 -0.454678 -4.83586
LeftLeg  56.0248 -2.12657 -2.90308
LeftFoot  0.243377 0.231575 -2.30418
LeftToes  1.81573e-012 2.54609e-010 -3.45981e-011
56
root  -24.5587 39.2198 5.34239 -124.91 -84.0833 127.909
RightUpLeg  -11.4913 -14.1964 -5.86995
RightLeg  26.576 8.16498 4.42394
RightFoot  -16.3239 -0.202628 -2.12991
RightToes  5.82063e-011 0 -3.6325e-017
Spine  -3.34183 1.23554 6.62829
Spine1  12.9845 1.99734 -1.4531
HEad  0.698285 2.51939 -7.14207
LeftShoulder1  -0.363329 4.42563 -33.2213
LeftArm  -2.79529 8.42891 -40.534
LeftForeArm  36.2458 -4.02885 -9.4481
LeftHand  -0.0887775 6.82675 -3.46736
RightShoulder  -0.71421 -5.57543 27.8071
RightArm  23.5715 4.81656 46.3541
RightForeArm  4.67117 18.2713 5.55323
RightHand  -0.247229 1.69432 -4.22234
LeftUpLeg  -28.0529 -1.14471 -6.7
LeftLeg  47.5541 -2.83843 -2.93498
LeftFoot  -0.576056 0.259244 -2.70709
LeftToes  1.81573e-012 2.54609e-010 -3.45981e-011
57
root  -25.938 39.2877 5.1504 -110.84 -84.0908 114.52
RightUpLeg  -8.47454 -16.4756 -7.49587
RightLeg  24.7422 9.33754 5.45733
RightFoot  -17.6225 -0.239031 -2.17951
RightToes  5.82063e-011 0 -3.6325e-017
Spine  -4.63793 1.21688 6.43185
Spine1  13.0258 1.9959 -2.65812
HEad  0.833159 2.66055 -6.88041
LeftShoulder1  -0.258626 4.17408 -32.4839
LeftArm  -3.02086 11.5138 -39.4815
LeftForeArm  35.2372 -3.96349 -9.22337
LeftHand  -0.0547763 6.32117 -1.98199
RightShoulder  -0.7761 -5.73367 28.1776
RightArm  24.4892 5.76913 45.9404
RightForeArm  3.11318 20.2725 5.04969
RightHand  -0.268933 1.1074 -4.92482
LeftUpLeg  -29.1533 -2.14804 -8.11779
LeftLeg  37.0871 -2.73388 -1.87886
LeftFoot  -0.81133 0.20427 -2.16734
LeftToes  1.81573e-012 2.54609e-010 -3.45981e-011
58
root  -27.303 39.2541 4.98959 -95.9998 -84.1825 100.961
RightUpLeg  -6.13346 -17.5558 -8.5883
RightLeg  22.9033 9.17371 6.25705
RightFoot  -18.8909 -0.272178 -2.19734
RightToes  5.82063e-011 0 -3.6325e-017
Spine  -6.43865 1.03811 6.31831
Spine1  13.0815 1.62014 -3.45973
HEad  0.663852 2.36898 -6.58297
LeftShoulder1  -0.328642 4.34736 -32.8232
LeftArm  -3.08953 13.8176 -37.8062
LeftForeArm  35.6119 -4.36598 -9.0532
LeftHand  -0.101621 7.43896 -3.26825
RightShoulder  -0.755168 -5.68625 27.9623
RightArm  24.0691 6.63759 45.932
RightForeArm  4.12128 21.7683 4.74047
RightHand  -0.26313 1.27919 -4.70453
LeftUpLeg  -29.7953 -3.66192 -8.99202
LeftLeg  24.5656 -1.65384 -0.504802
LeftFoot  -0.318549 0.266774 -2.73353
LeftToes  1.81573e-012 2.54609e-010 -3.45981e-011
